# xmcd CD database file
#
# Track frame offsets:
#	150
#	17620
#	38841
#	61570
#	73025
#	91515
#	100549
#	110444
#	131074
#	141130
#	149776
#	171241
#	178993
#	186073
#	199301
#	212754
#	222366
#	242450
#	251098
#	266488
#	278708
#	298393
#	307653
#
# Disc length: 4438 seconds
#
# Revision: 2
# Processed by: cddbd v1.5.2PL0 Copyright (c) Steve Scherf et al.
# Submitted via: jetAudio 5
#
DISCID=5a115417
DTITLE=Viktor Zoy - Zvezdnaya seriya 2001
DYEAR=1900
DGENRE=
TTITLE0=Voyna
TTITLE1=Trankvilizator (pod gitaru)
TTITLE2=Groppa krovi
TTITLE3=Elektrichka (pod gitaru)
TTITLE4=V nashih glazah
TTITLE5=Vesna (pod gitaru)
TTITLE6=Bezdel'nik (pod gitaru)
TTITLE7=Posledniy geroy
TTITLE8=Posledniy geroy (pod gitaru)
TTITLE9=Vos'miklasniza (pod gitaru)
TTITLE10=Pechal'
TTITLE11=Deti prohodnih dvorov (pod gitaru)
TTITLE12=Leto (pod gitaru)
TTITLE13=Colnenchnie dni (pod gitaru)
TTITLE14=Mama mi vse tyazelo bol'ni
TTITLE15=Trolleybus (pod gitaru)
TTITLE16=Hochu peremen
TTITLE17=Pora (pod gitaru)
TTITLE18=Trolleybus
TTITLE19=Kamchatka (pod gitaru)
TTITLE20=Elektrichka
TTITLE21=Stan' ptizey (pod gitaru)
TTITLE22=Hochu peremen (remix)
EXTD=
EXTT0=
EXTT1=
EXTT2=
EXTT3=
EXTT4=
EXTT5=
EXTT6=
EXTT7=
EXTT8=
EXTT9=
EXTT10=
EXTT11=
EXTT12=
EXTT13=
EXTT14=
EXTT15=
EXTT16=
EXTT17=
EXTT18=
EXTT19=
EXTT20=
EXTT21=
EXTT22=
PLAYORDER=
